<svg xmlns="http://www.w3.org/2000/svg" width="64.001" height="64">
  <path fill="none" d="M0 0h64.001v64H0z"/>
  <linearGradient id="a" gradientUnits="userSpaceOnUse" x1="32.0025" y1="61.9996" x2="32.0025" y2="2.0004">
    <stop offset="0" stop-color="#e20074"/>
    <stop offset=".2582" stop-color="#e50679"/>
    <stop offset=".596" stop-color="#ef1685"/>
    <stop offset=".9766" stop-color="#fe319a"/>
    <stop offset="1" stop-color="#ff339c"/>
  </linearGradient>
  <path fill="url(#a)" d="M62.002 57.5c0 2.475-2.025 4.5-4.5 4.5h-51c-2.475 0-4.5-2.025-4.5-4.5l.001-51c0-2.475 2.025-4.5 4.5-4.5h50.999c2.475 0 4.5 2.025 4.5 4.5v51z"/>
  <g>
    <path fill="#FEF4F9" d="M17.002 38v-7h6.999v7h-6.999zm22.999 0v-7h7v7h-7zm6.634-24H17.368l-.366 12.968 1.941.337c.361-3.821 1.36-6.656 2.995-8.506 1.721-1.936 4.035-2.947 7.081-3.034v27.127c0 2.369-.329 3.907-1.018 4.617-.585.606-1.519.977-2.913 1.115-.413.035-1.119.052-2.087.052v2.075h18v-2.075c-.967 0-1.673-.017-2.086-.052-1.394-.138-2.307-.509-2.892-1.115-.689-.709-1.022-2.248-1.022-4.617V15.764c3.047.087 5.343 1.098 7.064 3.034 1.635 1.85 2.633 4.686 2.995 8.506l1.941-.337L46.635 14z"/>
  </g>
</svg>
