<svg xmlns="http://www.w3.org/2000/svg" viewBox="0 0 1560 1560"><path d="M18 402.2l61.6-10.9c4.7 7.6 13.6 11.6 22.5 10 12-2.1 20-13.5 17.9-25.5-1.6-8.8-8.3-15.7-17-17.6-11.9-2.6-23.6 4.9-26.2 16.8l-61.7 10.9c-5.2 1-10.3 1.1-15.1.5v16.5c5.8.6 11.9.4 18-.7zM1.6 338.1l-1.6-9v16.8c1.4-2.2 2.1-5 1.6-7.8zM205 196.1l-37.4 6.6c-6 1.1-10 6.8-8.9 12.7l16.2 92.1c1.1 6 6.8 10 12.7 8.9l43.3-7.6c6-1.1 10-6.8 8.9-12.7L223.6 204C208.8 120.3 129 64.4 45.2 79.1 29 82 13.8 87.3 0 94.6v19.7c11.2-6.9 23.6-12.3 36.8-15.8 73.4-19.4 148.7 24.3 168.2 97.6zm17.6 97.4l-32.5 5.7-14.3-81.2 32.5-5.7 14.3 81.2zM1480.4 257.5l16.2 92.1c1.1 6 6.8 10 12.7 8.9l43.3-7.6c3.2-.6 5.7-2.4 7.3-4.9v-16.8l-14.7-83.1c-1.1-6-6.8-10-12.7-8.9l-37.4 6.6c-4.8-53 21.4-102.6 64.8-129.4V94.6c-57.4 30.4-91.4 95.4-79.5 162.9zm49.7-3.2l14.3 81.2-32.5 5.7-14.3-81.2 32.5-5.7zM1529.2 366.1l-16.8 3c8.5 19.7 26.7 31.9 47.6 33.9v-16.5c-13.1-1.6-24.4-8.6-30.8-20.4zM324.8 272.6v109.2h11.3V276.3h165.7v105.5h11.3V272.6c0-4.1-3.4-7.5-7.5-7.5H332.4c-4.2-.1-7.6 3.3-7.6 7.5zM532 389.3H306c0 12.4 10.2 22.6 22.6 22.6h180.8c12.4.1 22.6-10.1 22.6-22.6zm-97.9 15.1H404c-2.3 0-3.8-1.5-3.8-3.8s1.5-3.8 3.8-3.8h30.1c2.3 0 3.8 1.5 3.8 3.8-.1 2.3-1.6 3.8-3.8 3.8zM984.4 385.8l15.4-17c-57.4-53.5-146.4-53.5-203.7 0l15.4 17c23.6-21.6 54.4-33.7 86.4-34 32.1.1 63 12.3 86.5 34zM1114.1 246.9l15.4-17c-62.8-58.7-145.6-91.3-231.5-91.1-85.9-.1-168.7 32.5-231.5 91.1l15.4 17c121.9-113.2 310.3-113.2 432.2 0z"/><path d="M1049.2 316.3l15.4-17c-93.9-87.5-239.5-87.5-333.4 0l15.4 17c85.4-79.2 217.4-79.2 302.6 0zM875.6 432.9h46.3v46.3h-46.3zM232.3 472.8c-.9.2-1.6 1.1-1.4 2l8.3 47.3c.2.9 1.1 1.6 2 1.4s1.6-1.1 1.4-2l-8.3-47.3c-.1-1-1-1.6-2-1.4zM218.8 475.1c-.9.2-1.6 1.1-1.4 2l8.3 47.3c.2.9 1.1 1.6 2 1.4.9-.2 1.6-1.1 1.4-2l-8.3-47.3c-.2-.9-1-1.5-2-1.4zM267.8 446.5c-.2-1.4-1.6-2.3-3-2.1l-26.2 4.6-.3-1.7c-.3-1.9-2.1-3.1-4-2.8l-13.5 2.4c-1.9.3-3.1 2.1-2.8 4l.3 1.7-26.2 4.6c-1.4.2-2.3 1.6-2.1 3s1.6 2.3 3 2.1l72.7-12.8c1.4-.3 2.3-1.6 2.1-3z"/><path d="M264.7 454.8l-5.1.9 10.3 75.7c0 .5-.3 1-.8 1.1l-51 9c-.5.1-1-.3-1.1-.8l-16.3-74.6-5.1.9 16.3 74.8c.7 3.2 3.8 5.3 7.1 4.7l51-9c3.2-.6 5.4-3.6 5-6.9l-10.3-75.8z"/><path d="M245.9 470.4c-.9.2-1.6 1.1-1.4 2l8.3 47.3c.2.9 1.1 1.6 2 1.4.9-.2 1.6-1.1 1.4-2l-8.3-47.3c-.2-1-1.1-1.6-2-1.4z"/><ellipse transform="rotate(-45.001 511.522 542.381)" cx="511.5" cy="542.4" rx="5.1" ry="5.1"/><path d="M495 587.5c20.7 0 37.5-16.8 37.5-37.5s-16.8-37.5-37.5-37.5-37.5 16.8-37.5 37.5 16.8 37.5 37.5 37.5zm0-71.2c18.6 0 33.7 15.1 33.7 33.7s-15.1 33.7-33.7 33.7-33.7-15.1-33.7-33.7 15.1-33.7 33.7-33.7z"/><ellipse transform="rotate(-13.286 478.356 542.271)" cx="478.5" cy="542.4" rx="5.1" ry="5.1"/><path d="M495 571.6c9.9.2 19.1-5.2 23.8-14 .5-.9.1-2-.8-2.5s-2-.1-2.5.8c-4.1 7.5-12 12.1-20.5 11.9-8.5.1-16.4-4.5-20.4-12-.5-.9-1.7-1.3-2.6-.8-.9.5-1.3 1.7-.8 2.6 4.7 8.8 13.9 14.2 23.8 14zM1021.5 650c1.4 0 2.5-1.1 2.5-2.5v-39.2h11.3l-13.8-13.8-13.8 13.8h11.3v39.2c0 1.4 1.1 2.5 2.5 2.5z"/><path d="M1048.7 627.4c.7 0 1.3.2 2 .2 10 .1 18.2-8 18.3-18.1.1-8.4-5.7-15.8-13.8-17.8-2.7-13.2-14.3-22.7-27.8-22.7-9.3 0-18 4.5-23.3 12-1.7-.6-3.5-.9-5.3-.8-8 0-14.8 5.8-16 13.7-9.2 1.9-15.2 10.8-13.3 20 1.6 7.9 8.6 13.6 16.7 13.7 1.2 0 2.3-.1 3.5-.3 6 5.5 13.9 8.5 22 8.5.8 0 1.6 0 2.3-.2v-5c-.8 0-1.5.2-2.3.2-6.9.1-13.6-2.5-18.7-7.2l-1.8-1.7-2.5.5c-.8.2-1.7.3-2.5.3-6.6 0-11.9-5.4-11.9-12 0-5.7 4-10.6 9.6-11.7l3.3-.7.5-3.5c.9-5.5 5.6-9.5 11.2-9.5 1.3 0 2.5.2 3.7.7l3.5 1.2 2.2-3c7.4-10.6 22.1-13.2 32.7-5.8 4.9 3.4 8.3 8.6 9.5 14.4l.7 3.2 3 .8c7.1 1.8 11.4 9 9.6 16-1.5 5.9-6.8 10-12.9 10h-1.5l-2.3-.2-1.7 1.7c-2.4 2.5-5.7 3.9-9.2 3.8-1.9 0-3.8-.4-5.5-1.2l-1.3-1.2v5.5c2.2.9 4.5 1.3 6.8 1.3 4.5.2 9.1-1.8 12.5-5.1zM569.2 1294.2H530v40l39.2-.4z"/><path d="M531.9 1204l-1.9 69.1 10.2 1.9c1.9-20.4 7.2-35.5 15.8-45.3 9.4-10.6 21.9-15.8 38.1-16.2v144.9c0 12.8-1.9 20.8-5.3 24.5s-8.3 5.3-15.8 6c-2.3 0-6 .4-11.3.4v10.9h96.6v-10.9c-3.8 0-7.5 0-11.3-.4-7.5-.8-12.8-2.6-15.8-6-3.8-3.8-5.3-12.1-5.3-24.5v-144.9c14.3-.4 28.3 5.7 38.1 16.2 8.7 9.8 14 24.9 15.8 45.3l10.2-1.9-1.9-69.1H531.9z"/><path d="M650.4 1334.2l39.6-.4v-39.6h-39.6z"/><path d="M770 847.6" fill="none"/><path d="M774.7 819.2c1.3-1.7 2.9-3.2 4.5-4.4-2.5-.5-5-.8-7.7-.8-3 0-6.1.3-8.9 1-10.4 2.4-19.2 8.7-24.7 18-7.4 13.1-6.2 26.6-4.9 33.5.3 1.3 1.7 2.4 3 2s2.4-1.7 2-3c-1.2-6.2-2.4-18.3 4.2-29.9 4.9-7.9 12.4-13.5 21.5-15.6 2.5-.7 5.2-.8 7.7-.8 1.1-.1 2.1-.1 3.3 0zM798.1 900.3h.5c1.2 0 2.4-.8 2.5-2 2.2-12.4 3.2-23.7 2.9-33.5-1.9.5-3.5.8-5.2.8.3 9.3-.7 19.9-2.7 31.6-.2 1.4.7 2.8 2 3.1zM812.7 868.2c0-2.5 0-5-.2-7.2-1.5 1-3.2 2-4.9 2.7v4.5c0 1.3 1.2 2.5 2.5 2.5 1.5 0 2.6-1.2 2.6-2.5z"/><path d="M771.2 823.4c-2.4 0-4.5.3-6.9.8-7.9 1.9-14.6 6.7-18.8 13.8-4.2 6.9-5.6 15-3.9 22.7.7 5.4.2 13-6.7 18.3-1.2.8-1.3 2.5-.3 3.5.5.7 1.2 1 2 1 .5 0 1.2-.2 1.5-.5 9.4-7.4 9.6-17.7 8.7-23.2v-.2c-1.3-6.6-.2-13.5 3.2-19.2 3.5-5.9 9.1-9.9 15.6-11.4 1.2-.3 2.4-.5 3.7-.5.5-1.9 1.3-3.5 2.2-5.2-.1.1-.1.1-.3.1zM771.4 853.7c-1.3.2-2.4 1.3-2.2 2.9 1.2 11.6 1.3 33.1-11.9 48.5-.8 1-.8 2.7.3 3.5.5.3 1 .7 1.7.7s1.3-.3 1.9-.8c14.5-16.8 14.5-40 13.1-52.5-.2-1.4-1.4-2.4-2.9-2.3zM759.9 857.1c.5 4.4.7 8.1.5 11.3 0 1.3 1 2.5 2.5 2.7 1.3 0 2.5-1 2.7-2.5.2-3.5 0-7.6-.5-12.1v-.3c-.7-2-.3-3.9.7-5.4 1-1.7 2.4-2.7 4.2-3-.5-1.5-1-3.2-1.3-4.9-3 .7-5.6 2.7-7.2 5.4-1.7 2.6-2.3 5.8-1.6 8.8zM796.8 822.1c-6.6 0-11.8 5.2-11.8 11.8v16.8h23.6v-16.8c-.1-6.6-5.3-11.8-11.8-11.8zm-4.9 15.6c-1.3-.2-2.5-.8-3.2-2-.7-1.2-.7-2.4-.3-3.4 0-.2.3-.3.5-.2 2 1.5 4.2 2.7 6.6 3.4.2.2.2.3.2.5-1 1.2-2.3 1.9-3.8 1.7zm13.4-5.3c.3 1 .3 2.2-.3 3.4-.7 1.2-1.9 2-3.2 2-1.7.2-2.9-.7-3.7-1.7-.2-.2 0-.5.2-.5 2.4-.7 4.5-1.9 6.6-3.4.1-.2.4 0 .4.2z"/><path d="M764.5 839.4c1-.5 2.2-.8 3.2-1.2h.3v-1c0-1.3.2-2.9.3-4.2-.5.2-1 .2-1.7.3-1.5.3-2.9.8-4.4 1.5-1.3.7-1.9 2.2-1.2 3.4.8 1.4 2.3 1.9 3.5 1.2zM796.8 812c-14 0-25.2 11.3-25.2 25.2 0 14 11.3 25.2 25.2 25.2s25.2-11.3 25.2-25.2c0-13.9-11.3-25.2-25.2-25.2zm0 47.1c-12.1 0-21.9-9.8-21.9-21.9 0-12.1 9.8-21.9 21.9-21.9 12.1 0 21.9 9.8 21.9 21.9-.1 12.1-9.8 21.9-21.9 21.9zM771 910.3c.3.2.8.3 1.2.3.8 0 1.9-.5 2.2-1.3 10.1-18.8 11.1-35.2 10.3-46.1-2-.8-3.9-2-5.6-3.4 1.3 10.1 1.3 27.1-9.1 47.1-.7 1.2-.2 2.8 1 3.4zM740.4 889.2c-1 .8-1.2 2.5-.3 3.5.5.5 1.2.8 2 .8.5 0 1.2-.2 1.7-.7 1.5-1.3 3-2.7 4.4-4.2 10.1-11.9 8.7-25.4 7.7-30.8-1-4.2-.2-8.6 2-12.3.7-1.2.3-2.7-.8-3.5-1.2-.7-2.7-.3-3.5.8-2.9 4.9-3.9 10.6-2.7 16 .8 4.5 2 16.3-6.6 26.6-1.2 1.5-2.6 2.6-3.9 3.8zM749.2 903c.7 0 1.3-.2 1.9-.7 7.9-7.9 9.8-13.5 11.8-19.5 0-.7.3-1.5.5-2.4.5-1.3-.2-2.9-1.5-3.2-1.3-.5-2.9.2-3.2 1.5-.3.8-.5 1.7-.8 2.5-2 5.9-3.5 10.4-10.4 17.5-1 1-1 2.7 0 3.5.3.7 1 .8 1.7.8zM785.7 907.2h.7c1.2 0 2.2-.8 2.5-1.9 4.4-17 6.2-29.1 5.7-39.9-1.7.2-3.5-.2-5.2-.7.7 10.4-1.2 22.4-5.6 39.4-.3 1.4.5 2.8 1.9 3.1zM1388 877.9c0 .8.4 1.5 1 2l27.3 20.2-10.4 32c-.4 1.3.3 2.7 1.6 3.2.8.3 1.6.1 2.3-.4l27.3-19.8 27.3 19.8c1.1.8 2.7.6 3.5-.5.5-.7.6-1.6.4-2.4l-10.4-32 27.3-20.2c1.1-.8 1.4-2.4.5-3.5-.5-.6-1.2-1-2-1H1450l-10.4-31.7c-.4-1-1.3-1.7-2.4-1.7-1.1 0-2 .7-2.4 1.7l-10.4 31.7h-33.7c-1.6.1-2.7 1.2-2.7 2.6zm39.8 2.5l1.1-3.4 8-24.4 8 24.4 1.1 3.4h29.7l-21.2 15.7-2.9 2.1 1.1 3.4 8 24.7-21-15.3-3-2.1-2.9 2.1-21 15.3 8-24.7 1.1-3.4-2.9-2.1-21.2-15.7h30zM1198.8 927.7l-171.6-30.3c-8.6-1.5-16.8 4.2-18.4 12.8l-33 187.2c-1.5 8.6 4.2 16.8 12.8 18.4l171.6 30.3c8.6 1.5 16.8-4.2 18.4-12.8l33-187.2c1.6-8.6-4.2-16.9-12.8-18.4zm-57.4 6l-9.6 54.6-62.4-11 9.6-54.6 62.4 11zm-116.9-20.6l46.8 8.3-9.6 54.6-46.8-8.3 9.6-54.6zm-33.1 187.2l9.6-54.6 46.8 8.3-9.6 54.6-46.8-8.3zm54.6 9.6l9.6-54.6 62.4 11-9.6 54.6-62.4-11zm117 20.6l-46.8-8.3 11-62.4-124.8-22 11-62.4 171.6 30.3-22 124.8zm23.4-132.6l-46.8-8.3 9.6-54.6 46.8 8.3-9.6 54.6z"/><path d="M1222.2 1205.3l57.8-327.6-77.1-110.1-202.8-35.8c-8.6-1.5-16.8 4.2-18.4 12.8l-71.5 405.6c-1.5 8.6 4.2 16.8 12.8 18.4l280.8 49.5c8.7 1.6 16.9-4.2 18.4-12.8zM935 1146.6l68.8-390 184.9 32.6 66.1 94.4-54.6 309.7-265.2-46.7zM1451.7 1190.4c6.5-9.1 10-19.9 10-31.1 0-29.5-23.9-53.3-53.4-53.3s-53.3 23.9-53.3 53.3c0 29.5 23.9 53.3 53.3 53.3 11.2 0 22.1-3.5 31.1-10.2 4.8-3.2 8.9-7.3 12.3-12zm-16.2 6.4h-.3c-7.8 5.8-17.2 8.9-26.9 8.9-25.6 0-46.4-20.8-46.4-46.4s20.8-46.4 46.4-46.4c9.8 0 19.3 3.1 27.3 8.8 20.8 15 25.4 44 10.4 64.8-2.8 4-6.4 7.5-10.5 10.3zM1473.3 1234.1c2.8 2.6 7.2 2.5 9.8-.3 2.6-2.8 2.5-7.2-.3-9.8l-28.9-28.9c-2.9 3.7-6.2 6.9-9.9 9.8l29 29 .3.2zM964.2 1339.6c-20.8 5.9-33 27.5-27.1 48.3L892 1433v16c0 3.1 1.3 6.7 6.9 6.9h22.5v-10.5h10.5v-10.5h12.6v-12.6h12.2l7.8-7.3c3.4 1 6.9 1.5 10.5 1.5 3.6 0 7.1-.4 10.5-1.5 20.8-5.9 33-27.5 27.1-48.3-6-20.8-27.6-33-48.4-27.1zm10.5 70.7c-3.6 0-7.1-.6-10.5-1.7l-1.9-.6-8.4 8h-15.7v12.6h-12.6v10.5h-10.5v10.5h-16.8V1435.8l46-46-.6-1.9c-1-3.4-1.7-6.9-1.7-10.5 0-18.1 14.7-32.8 33-32.8 18.1 0 32.8 14.7 32.8 33-.1 18-14.8 32.7-33.1 32.7z"/><path d="M990.3 1361.6c-3.8-4-10.3-4-14.1-.2-3.8 4.2-3.8 10.5.2 14.5s10.3 4 14.1 0c3.8-3.8 3.8-10.1 0-14.1l-.2-.2zM307.8 130.8c1.8 9.3 10.7 15.5 20.1 14 9.3-1.8 15.6-10.7 14-20.1l-2.3-12.8c-1.8-9.3-10.7-15.6-20.1-14-9.3 1.8-15.5 10.7-14 20.1l2.3 12.8zm12.6-28.6c7.1-1.2 13.8 3.5 15 10.5l2.3 12.8c1.2 7.1-3.5 13.8-10.5 15-7.1 1.2-13.8-3.5-15-10.5l-2.3-12.8c-1.3-7 3.4-13.8 10.5-15zM295.7 178.3l4.3-.8-1-5.8c-1.1-6.2 3-12.1 9.2-13.2l43-7.6c6.2-1.1 12.1 3.1 13.2 9.2l1 5.8 4.3-.8-1-5.8c-1.5-8.5-9.6-14.3-18.1-12.8l-43 7.6c-8.5 1.5-14.2 9.6-12.7 18.2l.8 6zM112.997 1003.67l1.458-8.272 6.205 1.093-1.459 8.273zM118.3 1051.5l-7.2-1.2 6.5-37.2-13.4-2.4-1.1 6.2 7.3 1.3-5.5 31-7.2-1.3-1.1 6.2 20.6 3.6z"/><path d="M171 982l-99.1-17.5c-2.3-.4-4.5 1.1-4.9 3.4L49.5 1067c-.4 2.3 1.1 4.5 3.4 4.9l99.1 17.5c2.3.4 4.5-1.1 4.9-3.4l17.5-99.1c.4-2.3-1.1-4.5-3.4-4.9zm-19.9 100.9l-95-16.8 16.8-95 95 16.8-16.8 95zM83.3 1222c0-15.6-12.7-28.3-28.3-28.3s-28.3 12.7-28.3 28.3 12.7 28.3 28.3 28.3 28.3-12.7 28.3-28.3zm-54 0c0-14.2 11.5-25.7 25.7-25.7s25.7 11.5 25.7 25.7-11.5 25.7-25.7 25.7-25.7-11.5-25.7-25.7z"/><path d="M91 1222c0-19.9-16.1-36-36-36s-36 16.1-36 36 16.1 36 36 36 36-16.1 36-36zm-68.1 0c0-17.8 14.4-32.1 32.1-32.1s32.1 14.4 32.1 32.1-14.4 32.1-32.1 32.1-32.1-14.3-32.1-32.1z"/><path d="M66.8 1234l-2.7-2.4c-.6 1.1-1.3 2-2.2 2.8-1.4 1.3-3.2 2-5.1 1.9-3.4 0-6-1.8-7.7-5.4-.7-1.4-1.2-2.9-1.4-4.5h11.6l1.2-3h-13v-3h14.1l1.2-3h-15c1.2-6.6 4.2-9.9 9.1-9.9 2 0 4 .8 5.5 2.1.8.6 1.5 1.4 2.6 2.4l1.5-3.7c-.9-1-2-1.8-3.1-2.6-2-1.2-4.3-1.8-6.7-1.8-2.9-.1-5.7.9-8 2.7-2.4 2.1-4.2 4.9-5 8-.3.9-.5 1.9-.6 2.8H40l-1.2 3h3.9v3H40l-1.2 3H43c.5 3.1 1.6 6 3.3 8.6 2.3 3.2 6.1 5.1 10 4.9 4.5.1 8.5-2.2 10.5-5.9zM293.5 1112.1l2.6 14.7 14.5-2.6-2.3-14.7zM334.7 1120l14.4-2.6-2.6-14.7-14.7 2.6z"/><path d="M269.6 1152.2l70 65.2 42.8-85.1c6.1-13 8-27.9 5.5-42-7.1-38.2-43.2-63.5-81.4-56.4-38.2 7.1-63.2 43.1-56.5 81.1 2.6 14 9.4 27 19.6 37.2zm39-110.4c33.3-5.2 64.8 17.3 70 50.7 1.8 12 .1 24.5-5.1 35.5l-.9 2.1-35.9 71.6-58.4-54.7-2-1.9c-9-8.8-14.9-20.3-17-32.5-5.7-32.9 16.2-64.6 49.3-70.8z"/><path d="M295.9 1105.2c-1-9.2.2-15.5 4.1-19.1 2.2-2.3 5.1-3.8 8.6-4.4l2.2-.4 9.2 52.3c.3 1.9.7 3.8.7 5.7.2.9-.2 2.3-.8 3-1.3 1.5-3.1 2.5-5.4 2.6l-2.5.4.6 3.4 28.5-5-.6-3.4-2.5.4c-3.4.6-5.8.1-6.8-2s-1.5-4.6-1.8-6.8l-9.2-52.3 1.6-.3c2.5-.4 5.4-.3 7.8.2 2.7.8 5 2.7 6.7 5 2.6 3.7 4.7 8.2 5.8 12.6l3.1-.6-4.6-24.1-51.4 9.1 3.6 24.2 3.1-.5zM1489.7 1419.2v-8.8-.5c-.1-9.6-8.1-17.3-17.7-17.1h-.5c-9.6.1-17.3 8.1-17.1 17.7v8.8h3.8v-8.8-.6c.1-7.4 6.4-13.4 13.9-13.2h.6c7.4.1 13.4 6.4 13.2 13.9v8.8h3.8zM1498.5 1421.7h-53c-1.4 0-2.5 1.1-2.5 2.5v36.6c0 1.4 1.1 2.5 2.5 2.5h53c1.4 0 2.5-1.1 2.5-2.5v-36.6c0-1.4-1.1-2.5-2.5-2.5zm-1.3 37.8h-50.4v-34h50.4v34zM603.8 986.9l-8.6-48.6c-2.1-11.8 7.7-24.3 15.5-40.9 8.2-21 10.8-43.9 7.4-66.2-10.8-61.2-63-97-118.4-87.2-55.5 9.8-92.3 61.3-81.4 122.8 4.6 22.2 15.1 42.8 30.3 59.5 12.2 13.1 25.7 21.4 27.9 33.5l8.6 48.6 35.1 16.1 56.1-9.9 27.5-27.7zm-111.1-30c-2.4-13.8-12.2-23-21.8-31.9-3.4-3.1-6.7-6.4-10.2-9.9-12.9-14.4-21.7-31.9-25.7-50.8-9.2-51.1 19.9-95.7 67.6-104.1 47.7-8.4 90.3 23.4 99.2 74 2.8 19.2.7 38.7-6.2 56.8l-.1-.1c-1.9 4.1-4.2 8-6.1 11.8-6.5 12.3-12.8 24.5-10.3 38.7l1 5.4-22.9 4 3.6-74.6c2.2-1.4 2.8-4.3 1.4-6.4-.3-.5-.8-1-1.3-1.4-24.9-14.5-56.7-8.9-75.2 13.3-1.5 2.1-1 5.1 1.1 6.6.5.3 1 .6 1.6.7l28.3 69.2-23.1 4.1-.9-5.4zm62.3-80.5l-3.3 75.7-29.4 5.2-29.1-70c15.5-17.7 41.2-22.2 61.8-10.9zm-32.4 131l-22.9-10.9-4.1-23.3 86.5-15.2 4.1 23.4-17.9 18-45.7 8zM536.9 1049.4l32.4-5.7c6-.9 10.2-6.4 9.3-12.4l-.1-.3-1-5.4-54.4 9.6 1 5.4c1.1 5.9 6.8 9.9 12.8 8.8zM1275.2 1312.9l-22.4 8.1c-4.8-4-10.5-7.3-16.7-9.7l-4-23.4c-9.4-1.9-18.9-1.9-28.3 0l-4 23.4c-5.9 2.2-11.6 5.4-16.7 9.7l-22.4-8.1c-6.2 7.3-11 15.6-14.3 24.5l18.3 15.1c-1.1 6.2-1.1 12.9 0 19.1l-18.3 15.4c3.2 8.9 7.8 17.2 14.3 24.5l22.4-8.1c4.8 4 10.5 7.3 16.7 9.4l4 23.4c9.4 1.9 18.9 1.9 28.3 0l4-23.4c5.9-2.2 11.6-5.4 16.7-9.4l22.4 8.1c6.2-7.3 11-15.6 14.3-24.5l-18.3-15.1c.5-3.5.8-6.7.8-10 0-3.2-.3-6.5-.8-9.4l18.3-15.1c-3.2-8.9-7.8-17.3-14.3-24.5zm-9.4 33.1l-3.5 3 .8 4.8c1.1 5.4 1.1 11 0 16.2l-.8 4.6 3.5 3 14 11.6c-1.9 4.3-4.3 8.6-7.3 12.4l-16.7-6.2-4.3-1.6-3.8 3.2c-4 3.5-8.9 6.2-14 8.1l-4.3 1.6-.8 4.6-3 17.8c-4.8.5-9.7.5-14.3 0l-3.2-17.8-.8-4.6-4.6-1.6c-5.1-1.9-10-4.6-14.3-8.1l-3.5-3-4.6 1.6-16.7 6.2c-3-3.8-5.4-8.1-7.3-12.4l13.7-11.6 3.5-3-.5-4.8c-1.1-5.4-1.1-10.8 0-16.2l.8-4.6-3.5-3-13.7-11.6c1.9-4.3 4.3-8.6 7.3-12.4l16.7 6.2 4.3 1.6 3.5-3.2c4-3.5 8.9-6.2 14-8.1l4.3-1.6.8-4.6 3-17.8c2.7-.3 5.1-.3 7.5-.3s4.8 0 7.3.3l3 17.8.8 4.6 4.3 1.6c5.1 1.9 10 4.6 14.3 8.1l3.5 3 4.3-1.6 16.7-6.2c3 3.8 5.1 8.1 7.3 12.4l-13.7 11.6z"/><path d="M1218.1 1328.2c-18.6 0-33.7 15.1-33.7 33.7s15.1 33.7 33.7 33.7 33.7-15.1 33.7-33.7-15.1-33.7-33.7-33.7zm0 59.2c-14.3 0-25.6-11.6-25.6-25.6 0-14.3 11.6-25.6 25.6-25.6s25.6 11.6 25.6 25.6c0 14.3-11.3 25.6-25.6 25.6zM14.7 687.8L0 690.4V707l17.6-3.1z"/><path d="M9.3 877.5l113.1-19.9 69.7 48.8-10.4-59.2 48.5-8.5c5.9-1 9.9-6.7 8.9-12.7l-6.6-37.7-16.2 2.8 5.7 32.3-59.2 10.4 6.4 36.4-37.3-26.1 39.4-56.2 107.7-19c5.9-1 9.9-6.7 8.9-12.7l-28.5-161.6c-1-5.9-6.7-9.9-12.7-8.9l-220.9 39c-5.9 1-9.9 6.7-8.9 12.7L45.5 799c1 5.9 6.7 9.9 12.7 8.9l53.9-9.5 7.6 43.1-107.7 19-12-67.4v81.7c2.4 2.2 5.8 3.4 9.3 2.7zm51.4-86.8L34.1 639.9l210.1-37 26.6 150.8-109 19.2-30 42.8-6.4-36.4-64.7 11.4zM1528.2 707.1l28.5 161.6c.4 2.4 1.7 4.5 3.3 6.1v-81.7l-14.7-83.5 14.7-2.6v-16.7l-23 4c-5.9 1.2-9.9 6.8-8.8 12.8zM619.2 105.7c0 2.4 2 4.4 4.4 4.4s4.4-2 4.4-4.4-2-4.4-4.4-4.4-4.4 2-4.4 4.4z"/><path d="M549.9 116.3c-1 .6-1.3 2-.7 3 .3.5.8.8 1.3.9l27.9 4.4 4.4 27.9c.2.9.9 1.6 1.7 1.7h.3c.8 0 1.5-.5 1.9-1.2l12.9-25.1 28.1 4.2h.3c1.2-.1 2.1-1.2 2-2.4 0-.4-.2-.9-.5-1.2l-20-20 12.6-24.8c.5-1.1 0-2.4-1.1-2.9-.2-.1-.5-.2-.8-.2-.3 0-.6.1-.9.2l-24.9 12.5-20-20c-.4-.4-.9-.6-1.5-.6-.3 0-.6.1-.9.2-.8.4-1.2 1.3-1.1 2.2l4.2 28.1-25.2 13.1zm31.8-13.5L579.5 88 590 98.4l3 3.1 4.2-2.2 12.9-6.5-6.5 12.9-2.2 4.2 13.8 13.8-14.6-2.1-4.7-.7-2.2 4.2-6.5 13.1-2.2-14.4-.7-4.7-4.7-.7-14.4-2.2 13.1-6.5 4.2-2.2-.8-4.7z"/><path d="M509 194.1c1.3 1.3 3.3 1.3 4.6 0l61.6-61.6-.6-4-4-.6-61.6 61.6c-1.3 1.2-1.3 3.3 0 4.6-.1 0 0 0 0 0z"/><circle cx="546.2" cy="91.5" r="5.4"/><circle cx="606.1" cy="147.1" r="4.4"/><path d="M532 129.6c2.4 0 4.4-2 4.4-4.4s-2-4.4-4.4-4.4-4.4 2-4.4 4.4 2 4.4 4.4 4.4z"/><circle cx="587.6" cy="178.7" r="5.4"/><path d="M82.7 1517.5c-.1-.8-1-1.4-1.8-1.3l-3 .5c-.8.1-1.4 1-1.3 1.8l.5 3c.1.8 1 1.4 1.8 1.3l3-.5c.8-.1 1.4-1 1.3-1.8l-.5-3z"/><path d="M97.5 1441c-.3-1.7-1.9-2.8-3.6-2.5l-54.8 9.7c-1.7.3-2.8 1.9-2.5 3.6l14 79.2c.3 1.7 1.9 2.8 3.6 2.5l54.8-9.7c1.7-.3 2.8-1.9 2.5-3.6l-14-79.2zm-56.1 11.5l51.8-9.1 11.3 64-51.8 9.1-11.3-64zm13.4 76.2l-1.6-9.1 51.8-9.1 1.6 9.1-51.8 9.1zM389.3 1312.2l-188.8 33.3c-6 1.1-9.9 6.7-8.9 12.7l35.6 201.8h16.7l-35.1-199.3 178-31.4 40.7 230.7h16.7L402 1321.1c-1-6-6.7-10-12.7-8.9z"/><path d="M252.459 1419.776l113.252-19.964 1.91 10.833-113.253 19.964zM260.045 1462.88l113.252-19.964 1.91 10.832-113.252 19.964zM267.65 1506.081l113.251-19.964 1.91 10.833-113.252 19.964z"/><path d="M432.7 1273.9c-.9-4.4-5.1-7.3-9.5-6.7L229 1301.4c-4.4.9-7.3 5.1-6.7 9.5.9 4.4 5.1 7.3 9.5 6.7l186.1-32.8 42.3 240.1c.8 4.5 5.1 7.5 9.5 6.7 4.5-.8 7.5-5.1 6.7-9.5l-43.7-248.2zM247.1 49.8l188.8-33.3c6-1.1 9.9-6.7 8.9-12.7l-.6-3.8h-16.7l.2 1.3-178 31.4L243.9 0h-16.7l7.2 40.9c1.1 6 6.8 10 12.7 8.9zM846.8 1503.4H729.2c-2.3 0-4.2 1.9-4.2 4.2v52.4h6.3v-50.3h113.4v50.3h6.3v-52.4c0-2.3-1.9-4.2-4.2-4.2zM729.2 25.3h50.4v4.2h18.9v-4.2h48.3c2.3 0 4.2-1.9 4.2-4.2V0h-6.3v19H731.3V0H725v21.1c0 2.3 1.9 4.2 4.2 4.2zM817.4 35.8c0-1.2-.9-2.1-2.1-2.1h-54.6c-1.2 0-2.1.9-2.1 2.1V40h58.8v-4.2zM1173.4 1549.1l-95.5-16.8c-2.3-.4-4.5 1.1-4.9 3.4l-4.3 24.4h6.4l3.7-21.2 91.3 16.1-.9 5.1h6.4l1.1-6.1c.5-2.4-1.1-4.5-3.3-4.9z"/><path d="M1188 1538.8l-95.5-16.8c-2.3-.4-4.5 1.1-4.9 3.4l-.7 4.2 6.2 1.1.4-2.1 91.3 16.1-2.7 15.3h6.4l2.9-16.3c.4-2.3-1.1-4.5-3.4-4.9zM1171 50.7l-1.1 6.2 4.2.7c2.3.4 4.5-1.1 4.9-3.4l9.6-54.2h-6.4l-9 51.1-2.2-.4zM1064 51.1l22.8 4-4.4 24.9 29.3-20.5 47.7 8.4c2.3.4 4.5-1.1 4.9-3.4L1175.7 0h-6.4l-10.8 61.3-48.1-8.5-2.2 1.5-16.8 11.8 2.9-16.2-27-4.8 8-45.2h-6.4l-8.1 46.2c-.6 2.4.9 4.6 3.2 5z"/><path d="M1096.4 29l39.8 7c6.3 1 12.2-3.2 13.2-9.4.5-2.7 0-5.5-1.4-7.8-3.2-5.5-10.3-7.4-15.8-4.3-5.5 3.2-7.4 10.3-4.3 15.8l-21.8-3.8c2.1-1.8 3.6-4.3 4-7 1.1-6.3-3.2-12.3-9.5-13.3-6.3-1.1-12.3 3.2-13.3 9.5-1 6.1 3 11.9 9.1 13.3zm34.5-5.7c.7-4 4.5-6.6 8.5-6 4 .7 6.7 4.5 6 8.5s-4.5 6.7-8.5 6c-4-.7-6.7-4.5-6-8.5zm-39.4-7c.7-4 4.5-6.6 8.5-6 4 .7 6.7 4.5 6 8.5-.7 4-4.5 6.7-8.5 6s-6.7-4.4-6-8.5zM708.1 1127.3c-.3 2 1 3.9 2.9 4.2l93.1 16.4c2 .3 3.9-1 4.2-2.9l11.7-66.2-100.3-17.7-11.6 66.2zm101.1-44.9l-45.4 22.3-35.1-36.5 80.5 14.2zm-47.2 25.7l.2.1h.2c.2.1.4.2.7.3H764l.2-.1 49.3-24.2-10.2 58-89.5-15.8 10.2-58 38 39.7zM1212 445c1.9 1.9 4.6 3 7.3 3 2.8 0 5.5-1.1 7.5-3l56.1-56.2c2.5.8 5.1 1.2 7.7 1.2 8.1 0 15.7-4.2 20-11.1.5-.9.5-1.9 0-2.8-.5-.9-1.5-1.4-2.5-1.4h-15.5c-.4 0-.7-.3-.7-.7v-15.3c0-.4.3-.7.7-.7h15.7c1.5 0 2.7-1.2 2.7-2.8 0-.7-.3-1.3-.7-1.8-4.5-6.6-12-10.6-20-10.6v-.1c-13.1 0-23.7 10.6-23.7 23.7 0 2.6.4 5.2 1.2 7.7l-55.9 56c-3.9 4.2-3.9 10.8.1 14.9zm3.9-10.9l55.8-56 2.4-2.4-1-3.2c-.6-1.9-.9-4-.9-6 0-10.1 8.2-18.2 18.2-18.2 4.3 0 8.5 1.5 11.8 4.2h-9.6c-3.4 0-6.2 2.8-6.2 6.2V374c0 3.4 2.8 6.2 6.2 6.2h9.7c-3.3 2.8-7.4 4.4-11.8 4.4-2 0-4.1-.3-6-.9l-3.2-1-2.4 2.4-56 56.1c-1 .9-2.3 1.5-3.6 1.5-1.3 0-2.5-.5-3.4-1.3-1.8-2.2-1.8-5.3 0-7.3zM1252.4 501c-3.7-.6-7.2 1.8-7.8 5.5l-30.5 173c-.6 3.7 1.8 7.2 5.5 7.8l139.7 24.6c3.7.6 7.2-1.8 7.8-5.5l22.9-129.7-41.1-58.7-96.5-17zm105.3 200.3l-133.1-23.5 29.3-166.3 86.5 15.3-6.5 36.6c-1 5.5 2.7 10.8 8.2 11.7l36.6 6.5-21 119.7zm-14.3-132.8c-1.8-.3-3.1-2.1-2.7-3.9l5.7-32.4 29.5 42.1-32.5-5.8z"/><path d="M1315.8 594.3l.3-1.8c1.7-9.1.6-18.5-3-27-.3-.7-1.1-1.1-1.9-.8-.2.1-.4.2-.5.4-6.5 6.7-10.8 15.1-12.6 24.2-.1.7-.2 1.3-.3 1.9l-1-1.5c-5.3-7.6-12.7-13.5-21.3-16.9-.7-.3-1.6 0-1.9.8-.1.2-.1.4-.1.6.1 9.3 3 18.3 8.2 26l1.2 1.6-1.8-.3c-9.1-1.6-18.5-.5-27 3.2-.7.3-1.1 1.1-.8 1.9.1.2.2.4.4.5 6.6 6.4 15 10.8 24.1 12.5l1.9.3c-.5.3-1 .6-1.5 1-7.6 5.3-13.4 12.8-16.8 21.4-.3.7 0 1.6.8 1.9.2.1.4.1.6.1 9.3-.1 18.3-3 25.9-8.2l1.6-1.2-.3 1.8c-1.6 9.1-.5 18.6 3.2 27.1.3.7 1.1 1.1 1.9.8.2-.1.4-.2.5-.4 6.5-6.6 10.8-15.1 12.6-24.2.1-.7.2-1.3.3-1.9l1 1.5c5.3 7.6 12.7 13.5 21.3 16.9.7.3 1.6 0 1.9-.7.1-.2.1-.4.1-.7-.1-9.3-3-18.3-8.1-26l-1.2-1.6 1.8.3c9.1 1.6 18.4.6 26.9-3.1.7-.3 1.1-1.1.8-1.8-.1-.2-.2-.4-.4-.6-6.6-6.5-15-10.9-24.1-12.6l-1.9-.3 1.5-1c7.6-5.3 13.5-12.8 16.8-21.4.3-.7 0-1.6-.8-1.9-.2-.1-.4-.1-.6-.1-9.3.1-18.3 3-25.9 8.2-.9.4-1.4.7-1.8 1.1zM1308 619c-2.1 3.1-6.3 3.9-9.4 1.8-3.1-2.1-3.9-6.3-1.8-9.4.3-.4.6-.7.9-1.1 2.7-2.6 7-2.5 9.6.2 2.2 2.3 2.5 5.8.7 8.5zM1295.182 202.232l1.354-7.682 17.726 3.125-1.354 7.682zM1248.6 138.7l7.7 1.4.5-2.6 76.6 13.5-5.7 32.2c.9.3 1.7.7 2.4 1.2l4.6 3.6 7.6-43.3-91.7-16.2 93.1-4.6-.5-10.4-93.2 4.6.5 10.4h-.1l-1.8 10.2z"/><path d="M1203 238.6l47.5 8.4 36.1-25.2 11.3-64.3c.4-1.9-.9-3.8-2.8-4.2h-.2l-74.6-13.1c-1.9-.4-3.8.9-4.2 2.8v.2l-16.2 91.6c-.1 1.8 1.2 3.5 3.1 3.8zm51.7-4.1l2.4-13.4c.2-1.4 1.6-2.4 3-2.1l13.4 2.4-18.8 13.1zm-31.6-86l66.4 11.7-10.1 57-18.5-3.3c-4.2-.7-8.3 2.1-9 6.3l-.1.7-40.2-7.1 11.5-65.3zm-12.4 70.4l40.2 7.1-2.3 12.8-40.2-7.1 2.3-12.8zM1325.7 188c-1.9-.3-4.5.3-4.9 2.7l-7.9 44.9c-2.3-3.1-5.7-5.1-9.5-5.6-9.9-1.7-19.3 4.9-21 14.7-1.7 9.9 4.9 19.3 14.7 21 9.9 1.7 19.3-4.9 21-14.7l7.5-42.4 23.1 18.1 3.2-18.4-24.9-19.6c-.3-.4-.8-.6-1.3-.7zm-15.2 61.6c-1 5.6-6.4 9.4-12 8.4s-9.4-6.4-8.4-12 6.4-9.4 12-8.4 9.4 6.4 8.4 12zm35.9-39.2l-1.2 6.9-18.5-14.5 1.2-7 18.5 14.6z"/><path d="M1253.5 195.7c.2.3.2.6.4.6 2.5 3.6 6.1 6.3 10.2 7.9.4.1.8-.1.9-.5v-.2c0-4.4-1.4-8.7-3.9-12.3-.2-.3-.4-.6-.7-.6l.8.1c4.3.8 8.7.3 12.6-1.5.3 0 .5-.3.5-.6 0-.2-.1-.3-.3-.4-3.1-3.1-7-5.2-11.3-5.9l-.9-.2c.3-.2.6-.2.6-.4 3.6-2.5 6.3-6.1 7.9-10.2.1-.4-.1-.8-.5-.9h-.2c-4.4 0-8.7 1.4-12.3 3.9-.3.2-.6.4-.6.7l.1-.8c.8-4.3.3-8.7-1.5-12.6 0-.3-.3-.5-.6-.5-.2 0-.3.1-.4.3-3.1 3.1-5.2 7-5.9 11.3l-.2 1c-.2-.3-.2-.6-.4-.6-2.5-3.6-6.1-6.3-10.2-7.9-.4-.1-.8.1-.9.5v.2c0 4.4 1.4 8.7 3.9 12.3.2.3.4.6.7.6l-.8-.1c-4.3-.8-8.7-.3-12.6 1.5-.6.2-.6.7-.2 1.3 3.2 2.8 7.1 4.8 11.3 5.7l1 .2c-.3.2-.6.2-.6.4-3.6 2.5-6.3 6.1-7.9 10.2-.1.4.1.8.5.9h.2c4.4 0 8.7-1.4 12.3-3.9.3-.2.6-.4.6-.7l-.1.8c-.8 4.3-.3 8.7 1.5 12.6 0 .3.3.5.6.5.2 0 .3-.1.4-.3 3.1-3.1 5.2-7 5.9-11.3l.1-1.1zm-4.9-8c-1.4-1.3-1.6-3.5-.4-5.1 1.3-1.5 3.6-1.7 5.1-.4 1.5 1.3 1.7 3.6.4 5.1s-3.6 1.7-5.1.4zM817.3 694.4l-51.2-140.7s-3.8-10.4-13.8-10.1c-13.9.7-27.7 3.4-40.8 8.1-13.1 4.8-25.4 11.6-36.5 20-7.8 6.2-4.1 16.6-4.1 16.6L722.1 729c2.2 5.5 7.5 9 13.4 8.9 13.9-.6 27.7-3.3 40.8-8.1 13.1-4.8 25.4-11.6 36.5-20 4.5-3.7 6.3-9.8 4.5-15.4zM679.8 585.1s-1.2-4.3 1.1-6.1c10.3-7.7 21.7-13.9 33.7-18.3 12.2-4.3 25-6.9 37.9-7.7 2.7 0 4.5 4.1 4.5 4.1l1.6 4.5-77.3 28.1-1.5-4.6zm43.9 120.5l-40-110 77.3-28.1 40 110-77.3 28.1zm83.5-2.8c-10.3 7.7-21.7 13.9-33.7 18.3-12.2 4.3-25 7-37.9 7.7-1.8-.1-3.5-1.2-4.4-2.8l-5.3-14.6 77.3-28.1 5.3 14.6c.6 1.8.1 3.7-1.3 4.9z"/><path d="M773.7 704.2c-.7-1.6-2.4-2.4-4.1-1.9l-5.9 2.2c-1.6.7-2.4 2.4-1.9 4.1l2.2 5.9c.7 1.6 2.4 2.4 4.1 1.9l5.9-2.2c1.6-.7 2.4-2.4 1.9-4.1l-2.2-5.9z"/></svg>