<svg xmlns="http://www.w3.org/2000/svg" viewBox="0 0 64 64"><path fill="none" d="M0 0h64v64H0z"/><path d="M61.78 31.24A35 35 0 0032 15 35 35 0 002.22 31.24a1.5 1.5 0 000 1.57A35 35 0 0032 49.05a35 35 0 0029.78-16.24 1.5 1.5 0 000-1.57zM19 32a13 13 0 1113 13 13 13 0 01-13-13zM5.28 32A32.09 32.09 0 0124.9 18.81a15 15 0 000 26.43A32.09 32.09 0 015.28 32zM39.1 45.24a15 15 0 000-26.42A32.1 32.1 0 0158.72 32 32.09 32.09 0 0139.1 45.24zm0-13.24a7.08 7.08 0 11-13.87-2A3.41 3.41 0 0030 25.24 7.08 7.08 0 0139.09 32z"/></svg>