<svg xmlns="http://www.w3.org/2000/svg" viewBox="0 0 64 64"><path fill="none" d="M0 0h64v64H0z"/><path d="M31.06 39l8-8a7 7 0 01-8 8zm30.71-7.8a33.52 33.52 0 00-11.62-11.3l-2.24 2.24A30.81 30.81 0 0158.72 32 32.09 32.09 0 0139.1 45.24a15 15 0 006.11-20.31l-1.5 1.5A13 13 0 0126.38 43.7l-1.5 1.5-2.5 2.5A35.93 35.93 0 0032 49.05a35 35 0 0029.78-16.24 1.5 1.5 0 000-1.57zM57.52 8.59l-49 49a1.5 1.5 0 01-2.12-2.12l9.94-9.94A33.77 33.77 0 012.22 32.81a1.5 1.5 0 010-1.57A35 35 0 0132 15a35.89 35.89 0 0112.57 2.29L55.4 6.46a1.5 1.5 0 012.12 2.12zM39.1 18.82a14.9 14.9 0 012.36 1.58l.72-.72a28.57 28.57 0 00-3.08-.86zM32 19a13 13 0 00-10.2 21l4.2-4.17a7.07 7.07 0 019.76-9.76L40 21.82A12.93 12.93 0 0032 19zM18.7 43.16l1.68-1.68a15 15 0 014.52-22.67A32.09 32.09 0 005.28 32 31.26 31.26 0 0018.7 43.16z"/></svg>